<?xml version="1.0" standalone="no"?><!DOCTYPE svg PUBLIC "-//W3C//DTD SVG 1.1//EN" "http://www.w3.org/Graphics/SVG/1.1/DTD/svg11.dtd"><svg class="icon" width="128px" height="128.00px" viewBox="0 0 1024 1024" version="1.1" xmlns="http://www.w3.org/2000/svg"><path fill="#F2F4F5" d="M570.015428 96.00086l-6.208198 0c-157.215858 0-275.80809 112.480366-275.80809 261.631931l0 122.368069 0 64 0 242.720065-104.959656-106.112189c-12.416396-12.576374-32.671738-12.672705-45.248112-0.25631-12.576374 12.447359-12.672705 32.671738-0.25631 45.248112l158.495686 160.25545c6.239161 6.335493 14.496116 9.504099 22.751351 9.504099 8.12794 0 16.25588-3.103239 22.496761-9.247789 0.032684-0.032684 0.032684-0.063647 0.063647-0.096331 0.032684-0.032684 0.063647-0.032684 0.096331-0.063647l159.359226-158.911974c12.512727-12.480043 12.54369-32.735385 0.063647-45.248112-12.480043-12.576374-32.735385-12.512727-45.248112-0.063647l-103.616181 103.296224L351.99742 544.00086l0-64 0-122.368069c0-112.671308 91.07249-197.631931 211.80809-197.631931l6.208198 0c116.576159 0 197.984572 81.279398 197.984572 197.631931l0 506.368069c0 17.695686 14.303454 32.00086 32.00086 32.00086s32.00086-14.303454 32.00086-32.00086L832 357.632791C832 206.016181 721.824701 96.00086 570.015428 96.00086z" /></svg>