<?xml version="1.0" standalone="no"?><!DOCTYPE svg PUBLIC "-//W3C//DTD SVG 1.1//EN" "http://www.w3.org/Graphics/SVG/1.1/DTD/svg11.dtd"><svg class="icon" width="128px" height="128.00px" viewBox="0 0 1024 1024" version="1.1" xmlns="http://www.w3.org/2000/svg"><path fill="#F2F4F5" d="M383.935495 479.919368 191.967747 479.919368c-52.980346 0-95.983874-43.003528-95.983874-95.983874L95.983874 191.967747c0-52.980346 43.003528-95.983874 95.983874-95.983874l191.967747 0c52.980346 0 95.983874 43.003528 95.983874 95.983874l0 191.967747C479.919368 436.915841 436.915841 479.919368 383.935495 479.919368zM191.967747 159.973123c-17.545439 0-31.994625 14.449185-31.994625 31.994625l0 191.967747c0 17.545439 14.449185 31.994625 31.994625 31.994625l191.967747 0c17.545439 0 31.994625-14.449185 31.994625-31.994625L415.930119 191.967747c0-17.545439-14.449185-31.994625-31.994625-31.994625L191.967747 159.973123 191.967747 159.973123zM383.935495 928.016126 191.967747 928.016126c-52.980346 0-95.983874-43.003528-95.983874-95.983874L95.983874 639.892491c0-52.980346 43.003528-95.983874 95.983874-95.983874l191.967747 0c52.980346 0 95.983874 43.003528 95.983874 95.983874l0 191.967747C479.919368 884.840585 436.915841 928.016126 383.935495 928.016126zM191.967747 607.897867c-17.545439 0-31.994625 14.277171-31.994625 31.994625l0 191.967747c0 17.717453 14.449185 31.994625 31.994625 31.994625l191.967747 0c17.545439 0 31.994625-14.277171 31.994625-31.994625L415.930119 639.892491c0-17.717453-14.449185-31.994625-31.994625-31.994625L191.967747 607.897867 191.967747 607.897867zM832.032253 928.016126 639.892491 928.016126c-52.980346 0-95.983874-43.003528-95.983874-95.983874l0-63.989249c0-52.980346 43.003528-95.983874 95.983874-95.983874l191.967747 0c52.980346 0 95.983874 43.003528 95.983874 95.983874l0 63.989249C928.016126 884.840585 884.840585 928.016126 832.032253 928.016126zM639.892491 736.048379c-17.717453 0-31.994625 14.277171-31.994625 31.994625l0 63.989249c0 17.717453 14.277171 31.994625 31.994625 31.994625l191.967747 0c17.717453 0 31.994625-14.277171 31.994625-31.994625l0-63.989249c0-17.717453-14.277171-31.994625-31.994625-31.994625L639.892491 736.048379 639.892491 736.048379zM832.032253 607.897867 639.892491 607.897867c-52.980346 0-95.983874-43.003528-95.983874-95.983874l0-319.946246c0-52.980346 43.003528-95.983874 95.983874-95.983874l191.967747 0c52.980346 0 95.983874 43.003528 95.983874 95.983874l0 319.946246C928.016126 564.894339 884.840585 607.897867 832.032253 607.897867zM639.892491 159.973123c-17.717453 0-31.994625 14.449185-31.994625 31.994625l0 319.946246c0 17.545439 14.277171 31.994625 31.994625 31.994625l191.967747 0c17.717453 0 31.994625-14.449185 31.994625-31.994625l0-319.946246c0-17.545439-14.277171-31.994625-31.994625-31.994625L639.892491 159.973123 639.892491 159.973123z" /></svg>