<?xml version="1.0" standalone="no"?><!DOCTYPE svg PUBLIC "-//W3C//DTD SVG 1.1//EN" "http://www.w3.org/Graphics/SVG/1.1/DTD/svg11.dtd"><svg class="icon" width="128px" height="128.00px" viewBox="0 0 1024 1024" version="1.1" xmlns="http://www.w3.org/2000/svg"><path fill="#F2F4F5" d="M832 928.00086l-640 0c-52.9288 0-96.00086-43.07206-96.00086-95.99914l0-640c0-52.9288 43.07206-96.00086 96.00086-96.00086l640 0c52.92708 0 95.99914 43.07206 95.99914 96.00086l0 640C928.00086 884.9288 884.9288 928.00086 832 928.00086zM192 160.00086c-17.632039 0-32.00086 14.368821-32.00086 32.00086l0 640c0 17.664722 14.368821 31.99914 32.00086 31.99914l640 0c17.664722 0 31.99914-14.336138 31.99914-31.99914l0-640c0-17.632039-14.336138-32.00086-31.99914-32.00086L192 160.00086z" /></svg>