<?xml version="1.0" standalone="no"?><!DOCTYPE svg PUBLIC "-//W3C//DTD SVG 1.1//EN" "http://www.w3.org/Graphics/SVG/1.1/DTD/svg11.dtd"><svg class="icon" width="128px" height="128.00px" viewBox="0 0 1024 1024" version="1.1" xmlns="http://www.w3.org/2000/svg"><path fill="#F2F4F5" d="M977.454545 977.454545 884.363636 977.454545 884.363636 1024 1024 1024 1024 884.363636 977.454545 884.363636ZM1024 0 884.363636 0 884.363636 46.545455 977.454545 46.545455 977.454545 139.636364 1024 139.636364ZM0 1024 139.636364 1024 139.636364 977.454545 46.545455 977.454545 46.545455 884.363636 0 884.363636ZM93.090909 930.909091l837.818182 0L930.909091 93.090909 93.090909 93.090909 93.090909 930.909091zM139.636364 139.636364l744.727273 0 0 744.727273L139.636364 884.363636 139.636364 139.636364zM0 139.636364 46.545455 139.636364 46.545455 46.545455 139.636364 46.545455 139.636364 0 0 0Z" /></svg>